# xmcd
#
# Track frame offsets: 
#        150
#        21017
#        38682
#        61413
#        84668
#        96957
#        112149
#        135240
#        155322
#        176540
#
# Disc length: 2655 seconds
#
# Revision: 0
# Processed by: cddbd v1.5.2PL0 Copyright (c) Steve Scherf et al.
# Submitted via: ExactAudioCopy v1.0b3
#
DISCID=770a5d0a
DTITLE=Mong Thi - Dieu Chua Dam Noi
DYEAR=2000
DGENRE=
TTITLE0=Vi trong nghich canh
TTITLE1=Dieu chua dam noi
TTITLE2=Em ve miet thu
TTITLE3=Chyen do dang do
TTITLE4=Anh Hai ve lang
TTITLE5=Mien que yeu dau
TTITLE6=Tien dua
TTITLE7=Ve que ngoai
TTITLE8=Dung trach la dieu bong
TTITLE9=May nhip cau tre
EXTD=
EXTT0=
EXTT1=
EXTT2=
EXTT3=
EXTT4=
EXTT5=
EXTT6=
EXTT7=
EXTT8=
EXTT9=
PLAYORDER=
